<svg xmlns="http://www.w3.org/2000/svg" width="24" height="24" viewBox="0 0 24 24" fill="none">
  <path d="M16.365 1.43c0 1.02-.39 2.01-1.03 2.74-.72.83-1.9 1.7-3.13 1.46-.11-.03-.22-.05-.33-.08-.59-.16-1.18-.27-1.77-.27-.05 0-.09 0-.14.01C8.47 5.28 7.36 4.6 6.7 3.62 6.04 2.63 6.03 1.5 6.93.66 7.78-.16 9.25.04 10.4.68c.49.28 1.02.6 1.56.6.56 0 1.08-.32 1.57-.6 1.15-.64 2.62-.84 3.48-.02.84.82.95 2.01.92 2.84z" fill="#000"/>
  <path d="M20.1 7.72c-1.1-1.44-2.84-2.34-4.86-2.34-1.74 0-3.14.63-4.02.63-.94 0-2.3-.65-4.02-.65-2.28 0-4.63 1.38-5.83 3.85-2.33 4.35-.5 10.78 1.65 14.85.88 1.65 1.92 3.5 3.38 3.5 1.18 0 1.58-.76 3.13-.76 1.54 0 1.92.76 3.13.76 1.47 0 2.53-1.84 3.4-3.5 1.46-2.73 1.98-5.4 2-5.54-.04-.02-3.9-1.5-3.93-6.03-.03-5.03 4.03-6.78 4.12-6.86z" fill="#000"/>
</svg>
