<svg xmlns="http://www.w3.org/2000/svg" width="24" height="24" viewBox="0 0 24 24" fill="none">
  <rect width="24" height="24" rx="4" fill="#FFFFFF"/>
  <path d="M21.6 12.225c0-.725-.065-1.425-.187-2.1H12v3.98h5.4c-.233 1.25-.95 2.31-2.025 3.02v2.5h3.27c1.915-1.765 3.02-4.35 3.02-7.38z" fill="#4285F4"/>
  <path d="M12 22c2.7 0 4.97-.9 6.63-2.45l-3.27-2.5c-.9.6-2.05.95-3.36.95-2.58 0-4.76-1.74-5.54-4.08H2.98v2.56C4.63 19.9 8.06 22 12 22z" fill="#34A853"/>
  <path d="M6.46 13.92A5.996 5.996 0 0 1 6 12c0-.64.1-1.26.28-1.83V7.61H2.98A10 10 0 0 0 2 12c0 1.6.38 3.12 1.06 4.39l3.4-2.47z" fill="#FBBC05"/>
  <path d="M12 6.5c1.47 0 2.8.5 3.85 1.47l2.89-2.89C16.96 3.5 14.7 2.5 12 2.5 8.06 2.5 4.63 4.6 2.98 7.61l3.3 2.56C7.24 8.24 9.42 6.5 12 6.5z" fill="#EA4335"/>
</svg>
